<?xml version="1.0" standalone="no"?>
<!DOCTYPE svg PUBLIC "-//W3C//DTD SVG 20010904//EN"
 "http://www.w3.org/TR/2001/REC-SVG-20010904/DTD/svg10.dtd">
<svg version="1.0" xmlns="http://www.w3.org/2000/svg"
 width="512.000000pt" height="512.000000pt" viewBox="0 0 512.000000 512.000000"
 preserveAspectRatio="xMidYMid meet">

<g transform="translate(0.000000,512.000000) scale(0.100000,-0.100000)"
fill="#e5e5e5" stroke="none">
<path d="M3259 4112 c-164 -169 -382 -402 -553 -592 -77 -85 -152 -168 -168
-183 -27 -27 -28 -31 -22 -100 10 -118 33 -270 44 -281 5 -5 60 -13 121 -17
102 -8 130 -13 118 -22 -233 -190 -363 -276 -583 -387 -316 -159 -659 -251
-1001 -267 -77 -3 -128 -10 -143 -19 l-22 -14 0 -478 c0 -504 0 -502 46 -502
14 0 31 -14 49 -42 98 -150 223 -319 240 -323 45 -13 465 175 723 323 361 207
658 435 1003 769 336 326 505 562 564 789 8 32 15 73 15 91 0 18 2 33 4 33 2
0 39 -9 82 -20 116 -29 236 -37 256 -17 20 21 42 189 36 282 -11 176 -235 624
-437 875 -109 135 -202 230 -225 230 -16 0 -60 -38 -147 -128z m288 -157 c85
-105 179 -248 247 -376 55 -104 150 -328 142 -336 -2 -2 -38 5 -80 16 -108 28
-269 47 -303 35 -23 -7 -43 -38 -109 -165 -187 -363 -383 -628 -675 -915 -425
-416 -922 -699 -1474 -838 -55 -13 -113 -27 -130 -31 l-30 -6 9 410 9 409 76
7 c359 32 696 123 1006 274 236 115 401 224 596 394 47 41 94 77 105 79 10 2
25 17 33 33 8 17 32 50 53 74 80 92 134 257 93 291 -13 10 -21 11 -35 3 -11
-8 -21 -8 -27 -2 -5 5 -90 15 -189 21 -98 6 -181 13 -183 14 -8 7 340 383 579
627 l145 149 39 -44 c21 -23 68 -79 103 -123z m-844 -705 l60 0 -82 -61 c-45
-34 -84 -59 -87 -57 -2 3 -7 33 -11 68 l-6 63 33 -6 c18 -4 60 -7 93 -7z m193
-64 c-122 -73 -216 -142 -216 -157 0 -6 -14 -9 -32 -7 -25 2 -33 9 -39 31 -7
26 -3 31 64 76 40 27 92 65 117 85 44 35 48 36 129 36 l84 0 -107 -64z m100
-58 c-19 -29 -51 -70 -70 -91 l-35 -39 -51 11 c-28 6 -65 11 -83 12 -28 0 -22
5 53 44 47 24 114 63 150 88 36 24 66 40 68 36 2 -4 -13 -32 -32 -61z m712 56
c23 -4 41 -10 40 -14 -2 -4 -25 -26 -52 -49 l-48 -42 -29 46 c-35 55 -30 79
15 71 17 -3 50 -8 74 -12z m198 -45 c78 -20 85 -24 80 -43 -3 -12 -11 -52 -18
-90 l-11 -69 -68 7 c-119 11 -121 14 -40 74 39 28 71 56 71 61 0 5 -7 14 -15
21 -17 14 -60 -8 -154 -79 -30 -22 -57 -38 -62 -35 -4 2 -7 20 -5 39 3 27 13
42 54 74 28 22 53 45 57 51 8 14 13 13 111 -11z m-328 -98 l11 -59 -85 -128
c-89 -134 -252 -448 -320 -617 l-39 -98 -170 -167 c-170 -168 -355 -331 -355
-314 0 5 10 17 21 28 33 29 130 157 304 399 231 320 337 485 332 513 -3 17 13
50 58 115 67 98 215 357 215 376 0 6 4 11 9 11 5 0 14 -26 19 -59z m-18 -289
c-38 -119 -120 -255 -247 -410 -29 -36 -53 -61 -53 -58 0 23 313 559 318 545
2 -5 -6 -39 -18 -77z m-681 -654 c-139 -208 -261 -375 -338 -463 -29 -33 -57
-69 -61 -80 -9 -23 -320 -236 -320 -220 0 3 51 63 113 134 148 168 285 333
376 451 62 80 339 369 349 364 2 -1 -52 -85 -119 -186z m-375 -265 c-124 -154
-275 -337 -323 -393 -87 -100 -85 -98 -71 -115 7 -9 11 -17 9 -19 -2 -1 -40
-23 -84 -48 -82 -46 -365 -188 -331 -166 131 87 257 200 357 318 61 72 149
200 149 217 0 32 -39 7 -85 -54 -72 -96 -245 -273 -369 -378 -102 -86 -120
-109 -94 -117 6 -2 -41 -26 -106 -53 -95 -39 -122 -47 -143 -39 -15 5 -28 14
-29 19 -1 6 38 42 88 80 108 84 347 330 355 365 4 21 29 37 151 95 159 76 357
191 479 279 43 30 80 55 82 56 2 0 -14 -21 -35 -47z m-724 -387 c0 -2 -97 -98
-216 -212 l-216 -209 -33 40 -33 39 28 40 c15 23 60 78 99 122 58 67 79 84
113 93 24 6 88 29 143 50 103 40 115 44 115 37z m-445 -198 c-30 -40 -60 -82
-68 -92 -12 -18 -16 -15 -60 40 -25 32 -44 60 -42 62 2 2 52 17 112 32 59 16
109 29 110 29 2 1 -22 -32 -52 -71z"/>
</g>
</svg>
